<svg xmlns="http://www.w3.org/2000/svg" viewBox="0 0 48 48" width="24px" height="24px">
  <path fill="#EA4335" d="M24 9.5c3.54 0 6.74 1.22 9.26 3.6l6.91-6.91C36.61 2.48 30.83 0 24 0 14.7 0 6.61 5.22 2.69 12.78l8.04 6.26C12.34 13.34 17.74 9.5 24 9.5z"/>
  <path fill="#4285F4" d="M46.98 24.5c0-1.57-.14-3.08-.39-4.5H24v9h12.99c-.56 2.88-2.21 5.33-4.71 6.97l7.25 5.63c4.25-3.93 6.45-9.73 6.45-17.1z"/>
  <path fill="#FBBC05" d="M10.73 28.04c-1.02-2.88-1.02-6.03 0-8.91l-8.04-6.26c-3.55 6.95-3.55 15.48 0 22.43l8.04-6.26z"/>
  <path fill="#34A853" d="M24 48c6.83 0 12.57-2.25 16.76-6.1l-7.25-5.63c-2.02 1.36-4.61 2.17-7.51 2.17-6.26 0-11.66-3.84-13.27-9.29l-8.04 6.26C6.61 42.78 14.7 48 24 48z"/>
  <path fill="none" d="M0 0h48v48H0z"/>
</svg>
